<svg width="30" height="30" viewBox="0 0 30 30" fill="none" xmlns="http://www.w3.org/2000/svg">
<path fill-rule="evenodd" clip-rule="evenodd" d="M15.303 6.43753C15.1073 6.38142 14.8995 6.38142 14.7037 6.43753C14.6475 6.45368 14.5485 6.4941 14.3379 6.65107C14.1166 6.81616 13.8455 7.05243 13.4232 7.42216L7.80928 12.3364C7.12105 12.9389 6.92594 13.1206 6.7903 13.3215C6.65982 13.5148 6.56262 13.728 6.50261 13.9524C6.44023 14.1858 6.43198 14.45 6.43198 15.3569V20.6337C6.43198 21.5527 6.43284 22.1774 6.47354 22.6601C6.51317 23.1301 6.58497 23.3701 6.67324 23.5373C6.87654 23.9228 7.19565 24.2371 7.58703 24.4373C7.75693 24.5242 8.00056 24.5949 8.47781 24.6339C8.96788 24.674 9.60229 24.6749 10.5355 24.6749H10.7177V21.5094C10.7177 19.1785 12.6364 17.2889 15.0034 17.2889C17.3703 17.2889 19.2891 19.1785 19.2891 21.5094V24.6749H19.4712C20.4044 24.6749 21.0388 24.674 21.5289 24.6339C22.0061 24.5949 22.2497 24.5242 22.4197 24.4373C22.811 24.2371 23.1301 23.9228 23.3335 23.5373C23.4217 23.3701 23.4935 23.1301 23.5332 22.6601C23.5738 22.1774 23.5747 21.5527 23.5747 20.6337V15.3569C23.5747 14.45 23.5665 14.1858 23.504 13.9524C23.444 13.728 23.3469 13.5148 23.2164 13.3215C23.0807 13.1206 22.8856 12.9389 22.1974 12.3364L16.5835 7.42216C16.1612 7.05243 15.8901 6.81616 15.6687 6.65107C15.4582 6.4941 15.3592 6.45368 15.303 6.43753ZM14.1046 4.41141C14.6916 4.24307 15.3151 4.24307 15.9021 4.41141C16.3093 4.52822 16.6471 4.73364 16.9622 4.9686C17.2589 5.18988 17.5932 5.48247 17.9781 5.81938L23.621 10.7592C23.6515 10.7858 23.6814 10.812 23.711 10.8379C24.27 11.3267 24.6921 11.6959 25.0009 12.1532C25.2618 12.5398 25.4563 12.9662 25.5763 13.4151C25.7182 13.9462 25.718 14.5022 25.7176 15.2383C25.7176 15.2773 25.7176 15.3168 25.7176 15.3569V20.678C25.7176 21.5416 25.7176 22.2545 25.6686 22.8348C25.6178 23.4376 25.5087 23.9915 25.235 24.5102C24.8284 25.2811 24.1902 25.9095 23.4075 26.3099C22.8807 26.5794 22.3184 26.6869 21.7062 26.7369C21.1169 26.7852 20.3932 26.7852 19.5161 26.7852H19.0801C19.0718 26.7852 19.0634 26.7852 19.0549 26.7852C18.9251 26.7852 18.7702 26.7853 18.6337 26.7741C18.4754 26.7612 18.2489 26.728 18.0125 26.6069C17.7189 26.4568 17.4795 26.2211 17.3271 25.9321C17.2043 25.6991 17.1705 25.476 17.1574 25.3202C17.146 25.1859 17.1461 25.0332 17.1461 24.9054L17.1462 21.5094C17.1462 20.3439 16.1868 19.3991 15.0034 19.3991C13.8199 19.3991 12.8605 20.3439 12.8605 21.5094L12.8605 24.9054C12.8605 25.0332 12.8607 25.1859 12.8493 25.3202C12.8361 25.476 12.8024 25.6991 12.6796 25.9321C12.5271 26.2211 12.2877 26.4568 11.9942 26.6069C11.7577 26.728 11.5312 26.7612 11.373 26.7741C11.2365 26.7853 11.0816 26.7852 10.9518 26.7852C10.9433 26.7852 10.9349 26.7852 10.9266 26.7852H10.4905C9.61355 26.7852 8.88975 26.7852 8.30046 26.7369C7.6883 26.6869 7.12598 26.5794 6.59922 26.3099C5.81648 25.9095 5.17825 25.2811 4.77165 24.5102C4.49803 23.9915 4.38888 23.4376 4.33805 22.8348C4.28911 22.2545 4.28912 21.5416 4.28914 20.678V15.3569C4.28914 15.3168 4.28911 15.2773 4.2891 15.2383C4.28871 14.5022 4.28842 13.9462 4.4304 13.4151C4.55043 12.9662 4.74484 12.5398 5.0058 12.1532C5.3145 11.6959 5.73673 11.3267 6.29566 10.8379C6.32527 10.812 6.35526 10.7858 6.38565 10.7592L12.0286 5.81939C12.4135 5.48247 12.7477 5.18988 13.0445 4.9686C13.3596 4.73364 13.6973 4.52822 14.1046 4.41141Z" fill="#B8B8B8"/>
</svg>
