<svg width="24" height="24" viewBox="0 0 24 24" fill="none" xmlns="http://www.w3.org/2000/svg">
<g clip-path="url(#clip0_399_50141)">
<path d="M18.2806 5.5202H18.2941M6.60313 22.8002H17.4031C20.3854 22.8002 22.8031 20.3825 22.8031 17.4002V6.6002C22.8031 3.61786 20.3854 1.2002 17.4031 1.2002H6.60313C3.62079 1.2002 1.20312 3.61786 1.20312 6.6002V17.4002C1.20312 20.3825 3.62079 22.8002 6.60313 22.8002ZM17.0656 12.0002C17.0656 14.7962 14.7991 17.0627 12.0031 17.0627C9.20718 17.0627 6.94063 14.7962 6.94063 12.0002C6.94063 9.20425 9.20718 6.9377 12.0031 6.9377C14.7991 6.9377 17.0656 9.20425 17.0656 12.0002Z" stroke="white" stroke-width="2" stroke-linecap="round" stroke-linejoin="round"/>
</g>
<defs>
<clipPath id="clip0_399_50141">
<rect width="24" height="24" fill="white"/>
</clipPath>
</defs>
</svg>
