<svg width="60" height="60" viewBox="0 0 60 60" fill="none" xmlns="http://www.w3.org/2000/svg">
<path d="M25.4988 58.3124C23.4363 58.3124 21.5613 57.7499 19.8738 56.6249C13.8738 52.6874 8.06134 46.6874 3.93634 40.6874C1.31134 36.7499 1.87384 30.9374 5.06134 27.7499C6.74884 26.0624 8.81134 25.3124 11.0613 25.6874C12.9363 26.0624 14.8113 26.9999 16.4988 28.6874C18.1863 30.3749 19.1238 32.2499 19.4988 34.1249C19.8738 36.3749 19.1238 38.4374 17.4363 40.1249C17.2488 40.3124 17.0613 40.4999 16.8738 40.6874C17.8113 41.8124 18.9363 42.7499 20.0613 43.8749C20.2488 43.6874 20.4363 43.4999 20.6238 43.3124C23.8113 40.1249 28.1238 40.4999 31.8738 44.2499C35.6238 47.9999 35.9988 52.3124 32.8113 55.4999C30.9363 57.1874 28.1238 58.3124 25.4988 58.3124Z" fill="#1D9BF0"/>
<path d="M45 24.375V23.25L43.875 24.375H45Z" fill="#1D9BF0"/>
<path d="M35.625 3.75C24.375 3.75 15.1875 11.8125 13.5 22.5C15.5625 23.25 17.4375 24.375 19.125 26.0625C21.375 28.3125 22.6875 30.75 23.25 33.375C23.4375 34.6875 23.4375 36.1875 23.0625 37.5C26.8125 36.5625 31.125 37.875 34.5 41.4375C36.5625 43.5 38.0625 45.9375 38.4375 48.5625C49.5 47.25 58.125 37.6875 58.125 26.25C58.125 13.875 48 3.75 35.625 3.75ZM35.625 31.875H28.125C27.375 31.875 26.625 31.5 26.4375 30.75C26.25 30 26.25 29.25 26.8125 28.6875L32.25 23.25C32.4375 23.0625 32.625 22.6875 32.625 22.125C32.625 21.5625 32.4375 21.375 32.25 21C31.6875 20.4375 30.75 20.4375 30.1875 21L29.4375 21.75C28.6875 22.5 27.5625 22.5 26.8125 21.75C26.0625 21 26.0625 19.875 26.8125 19.125L27.5625 18.375C29.625 16.3125 33 16.3125 34.875 18.375C35.8125 19.3125 36.375 20.625 36.375 22.125C36.375 23.4375 35.8125 24.75 34.875 25.875L32.625 28.125H35.625C36.75 28.125 37.5 28.875 37.5 30C37.5 31.125 36.75 31.875 35.625 31.875ZM48.75 30C48.75 31.125 48 31.875 46.875 31.875C45.75 31.875 45 31.125 45 30V28.125H39.375C38.625 28.125 37.875 27.75 37.6875 27C37.5 26.25 37.5 25.5 38.0625 24.9375L45.5625 17.4375C46.125 16.875 46.875 16.6875 47.625 17.0625C48.375 17.25 48.75 18 48.75 18.75V30Z" fill="#1D9BF0"/>
</svg>
