<svg width="19" height="19" viewBox="0 0 19 19" fill="none" xmlns="http://www.w3.org/2000/svg">
<g clip-path="url(#clip0_399_50031)">
<path d="M17.932 8.01006L17.9616 8.01655H5.24771L9.24451 4.01094C9.44022 3.81538 9.54758 3.55046 9.54758 3.27242C9.54758 2.99437 9.44022 2.7313 9.24451 2.53528L8.62261 1.91307C8.42704 1.71751 8.16645 1.60938 7.88856 1.60938C7.61051 1.60938 7.34976 1.71673 7.1542 1.91229L0.302923 8.76295C0.106589 8.95929 -0.000768219 9.22081 4.1385e-06 9.49901C-0.000768219 9.77876 0.106589 10.0404 0.302923 10.2365L7.1542 17.0877C7.34976 17.2831 7.61035 17.3906 7.88856 17.3906C8.16645 17.3906 8.42704 17.283 8.62261 17.0877L9.24451 16.4655C9.44022 16.2703 9.54758 16.0095 9.54758 15.7315C9.54758 15.4536 9.44022 15.2066 9.24451 15.0112L5.20261 10.9832H17.9462C18.5188 10.9832 19 10.4896 19 9.91732V9.03729C19 8.46498 18.5046 8.01006 17.932 8.01006Z" fill="black"/>
</g>
<defs>
<clipPath id="clip0_399_50031">
<rect width="19" height="19" fill="white"/>
</clipPath>
</defs>
</svg>
