<svg width="46" height="46" viewBox="0 0 46 46" fill="none" xmlns="http://www.w3.org/2000/svg">
<circle cx="23" cy="23" r="23" fill="#ECEBFF"/>
<path d="M22.9982 24.0003V27.0003M21.5382 14.1103C20.1381 14.3407 18.8124 14.899 17.6692 15.7394C16.526 16.5798 15.5977 17.6786 14.9601 18.9461C14.3224 20.2136 13.9935 21.6139 14.0001 23.0327C14.0067 24.4516 14.3487 25.8488 14.9982 27.1103L14.2982 30.5203C14.265 30.6823 14.2726 30.8499 14.3202 31.0083C14.3678 31.1666 14.4539 31.3107 14.5708 31.4276C14.6877 31.5446 14.8318 31.6307 14.9901 31.6782C15.1485 31.7258 15.3162 31.7334 15.4782 31.7003L18.8682 31.0003C20.1339 31.6503 21.5358 31.9909 22.9587 31.9941C24.3816 31.9974 25.785 31.6632 27.0538 31.019C28.3225 30.3749 29.4205 29.439 30.2575 28.2883C31.0945 27.1376 31.6468 25.8049 31.8689 24.3994C32.0911 22.994 31.9769 21.5558 31.5356 20.2031C31.0943 18.8503 30.3386 17.6215 29.3304 16.6173C28.3222 15.6132 27.0903 14.8625 25.7358 14.4267C24.3813 13.9909 22.9427 13.8824 21.5382 14.1103V14.1103Z" stroke="#5031DD" stroke-width="2" stroke-linecap="round" stroke-linejoin="round"/>
<path d="M23.0531 19H22.9531" stroke="#5031DD" stroke-width="2" stroke-linecap="round" stroke-linejoin="round"/>
</svg>
