<svg width="46" height="46" viewBox="0 0 46 46" fill="none" xmlns="http://www.w3.org/2000/svg">
<circle cx="23" cy="23" r="23" fill="#E7FFEE"/>
<path d="M21.5247 23.1949C23.7418 23.1949 25.5387 21.36 25.5387 19.0974C25.5387 16.8349 23.7418 15 21.5247 15C19.3076 15 17.5107 16.8343 17.5107 19.0974C17.5107 19.0974 17.5107 19.0974 17.5107 19.098C17.5136 21.36 19.3094 23.1931 21.5247 23.1955V23.1949ZM21.5247 16.506C22.9268 16.506 24.0634 17.6662 24.0634 19.0974C24.0634 20.5287 22.9268 21.6889 21.5247 21.6889C20.1226 21.6889 18.986 20.5287 18.986 19.0974C18.9877 17.6668 20.1237 16.5072 21.5247 16.5054V16.506ZM21.5247 23.9232C17.8689 23.9388 14.8138 26.5441 14.0271 30.0338L14.0171 30.0868C14.0065 30.135 14 30.1904 14 30.247C14 30.606 14.2461 30.906 14.5754 30.9813L14.5801 30.9825C14.6279 30.994 14.6828 31 14.7388 31C15.0906 31 15.3844 30.7482 15.4576 30.4121L15.4588 30.4073C16.0926 27.5393 18.567 25.4291 21.5247 25.4291C24.4824 25.4291 26.9574 27.5399 27.5829 30.3657L27.5906 30.4079C27.6655 30.7488 27.9594 30.9994 28.3111 30.9994C28.7183 30.9994 29.0488 30.6627 29.0488 30.2464C29.0488 30.1892 29.0423 30.1338 29.0305 30.0802L29.0317 30.085C28.2344 26.5429 25.1799 23.9388 21.5265 23.922H21.5247V23.9232ZM31.4417 20.1606C30.7448 19.9685 30.1346 19.695 29.5769 19.3438L29.607 19.3613C29.492 19.2824 29.3503 19.2354 29.1981 19.2354C29.0458 19.2354 28.9042 19.2824 28.7862 19.3631L28.7891 19.3613C28.261 19.695 27.6508 19.9685 27.0028 20.1492L26.9538 20.1606C26.6305 20.2456 26.3956 20.5408 26.3956 20.8913C26.3956 20.951 26.4027 21.0094 26.4151 21.0648L26.4139 21.06C26.6204 21.9738 27.4318 24.955 29.1975 24.955C30.9643 24.955 31.7746 21.9732 31.9811 21.0594C31.9929 21.0088 32 20.951 32 20.8913C32 20.5408 31.7651 20.2456 31.4471 20.1619L31.4417 20.1606ZM29.1975 23.4485C28.9219 23.4485 28.392 22.5539 28.032 21.3919C28.4876 21.2269 28.8723 21.0498 29.24 20.8444L29.1975 20.866C29.5221 21.0492 29.9062 21.2263 30.3052 21.3733L30.363 21.3919C30.006 22.5395 29.4684 23.4485 29.1975 23.4485Z" fill="#1ACE21"/>
</svg>
