<svg width="31" height="31" viewBox="0 0 31 31" fill="none" xmlns="http://www.w3.org/2000/svg">
<path d="M23.3516 23.8023V10.3174C23.3516 7.71605 21.5238 5.47704 18.9862 4.96978C16.5041 4.47362 13.9491 4.47362 11.4669 4.96978C8.9293 5.47704 7.10156 7.71605 7.10156 10.3174V23.8023C7.10156 25.3799 8.80494 26.3618 10.1591 25.5648L13.8582 23.3873C14.7033 22.8898 15.7498 22.8898 16.5949 23.3873L20.2941 25.5648C21.6482 26.3618 23.3516 25.3799 23.3516 23.8023Z" fill="#F7F7F7" stroke="#B8B8B8" stroke-width="1.93042" stroke-linecap="round" stroke-linejoin="round"/>
<path d="M7.10156 23.8023C7.10156 25.3799 8.80494 26.3618 10.1591 25.5648L13.8582 23.3873C14.7033 22.8898 15.7498 22.8898 16.5949 23.3873L20.2941 25.5648C21.6482 26.3618 23.3516 25.3799 23.3516 23.8023V10.3174C23.3516 7.71605 21.5238 5.47704 18.9862 4.96978C16.5041 4.47362 13.9491 4.47362 11.4669 4.96978" stroke="#B8B8B8" stroke-width="1.93042" stroke-linecap="round" stroke-linejoin="round"/>
</svg>
