<svg width="46" height="46" viewBox="0 0 46 46" fill="none" xmlns="http://www.w3.org/2000/svg">
<circle cx="23" cy="23" r="23" fill="#FFE7ED"/>
<path d="M29.0989 30.4549C28.9989 31.0348 28.499 31.4348 27.919 31.4348H18.5997V33.0347H27.919C29.2789 33.0347 30.4388 32.0547 30.6788 30.7348L31.9587 23.5354C32.0987 22.7154 31.8787 21.8755 31.3588 21.2556C30.8188 20.6156 30.0389 20.2556 29.2189 20.2556H26.0392C26.2791 19.5157 26.5991 18.4358 26.8591 17.0159L26.9791 16.1759C27.1591 14.856 26.2391 13.6561 24.9392 13.4761C24.2993 13.3962 23.6793 13.5561 23.1594 13.9361C22.6394 14.3161 22.3194 14.896 22.2195 15.516L22.0995 16.3159C22.0795 16.4159 22.0595 16.5159 22.0595 16.6159C22.0395 16.7159 22.0195 16.8159 21.9995 16.9159C21.3795 19.8357 19.0597 22.1955 16.0599 22.9554L15 23.2154V33.0347H16.5999V24.4553C20.0996 23.5154 22.8394 20.7156 23.5794 17.2559C23.5993 17.1359 23.6193 17.0159 23.6593 16.8959C23.6793 16.7759 23.6993 16.6559 23.7193 16.5359L23.8393 15.736C23.8593 15.516 23.9793 15.336 24.1593 15.216C24.3393 15.096 24.5393 15.036 24.7593 15.056C25.1992 15.116 25.4992 15.516 25.4392 15.956L25.3392 16.7359C24.9192 19.0557 24.3393 20.3956 24.2393 20.6556L24.1793 20.8156V21.8555H29.2789C29.6389 21.8555 29.9789 22.0155 30.1988 22.2755C30.4188 22.5555 30.5188 22.9154 30.4588 23.2554L29.0989 30.4549Z" fill="#E63760"/>
</svg>
