<svg width="46" height="46" viewBox="0 0 46 46" fill="none" xmlns="http://www.w3.org/2000/svg">
<circle cx="23" cy="23" r="23" fill="#F4E7FF"/>
<path d="M32.2266 16.6686C32.2262 17.2231 32.0059 17.7549 31.6139 18.1471C31.2219 18.5393 30.6903 18.76 30.1358 18.7607H29.4799V29.6438C29.4792 30.1981 29.2587 30.7295 28.8667 31.1215C28.4748 31.5134 27.9434 31.7339 27.3891 31.7346H16.318C16.0434 31.7346 15.7714 31.6805 15.5177 31.5754C15.2639 31.4703 15.0333 31.3162 14.8391 31.122C14.6449 30.9278 14.4909 30.6973 14.3858 30.4435C14.2807 30.1898 14.2266 29.9178 14.2266 29.6431C14.2266 29.3685 14.2807 29.0965 14.3858 28.8428C14.4909 28.589 14.6449 28.3585 14.8391 28.1643C15.0333 27.97 15.2639 27.816 15.5177 27.7109C15.7714 27.6058 16.0434 27.5517 16.318 27.5517H16.9726V16.6686C16.9726 16.1136 17.193 15.5813 17.5853 15.1888C17.9776 14.7962 18.5097 14.5755 19.0647 14.5752H30.1345C30.6892 14.5755 31.2211 14.7961 31.6134 15.1883C32.0057 15.5806 32.2262 16.1125 32.2266 16.6673V16.6686ZM16.318 30.2984H25.4007C25.2604 29.8733 25.2604 29.4143 25.4007 28.9892H16.3206C16.147 28.9892 15.9805 29.0582 15.8577 29.1809C15.735 29.3037 15.666 29.4702 15.666 29.6438C15.666 29.8174 15.735 29.9839 15.8577 30.1067C15.9805 30.2294 16.147 30.2984 16.3206 30.2984H16.318ZM28.0424 16.6686C28.0421 16.4463 28.0771 16.2253 28.1461 16.014H19.066C18.9203 16.0137 18.7787 16.0626 18.6642 16.1527L18.6616 16.154C18.5833 16.2149 18.52 16.293 18.4766 16.3822C18.4333 16.4714 18.411 16.5694 18.4114 16.6686V27.5517H26.6256C26.8046 27.5496 26.979 27.6084 27.1203 27.7184C27.2616 27.8283 27.3614 27.983 27.4033 28.157C27.4526 28.3236 27.4476 28.5015 27.3891 28.6651C27.3306 28.8286 27.2217 28.9694 27.078 29.067C26.9764 29.1221 26.8913 29.2032 26.8312 29.3019C26.7711 29.4006 26.7382 29.5135 26.7359 29.629C26.7336 29.7445 26.7619 29.8586 26.8179 29.9597C26.874 30.0608 26.9558 30.1452 27.055 30.2044C27.1543 30.2636 27.2674 30.2955 27.383 30.2968C27.4985 30.2981 27.6124 30.2688 27.7129 30.2118C27.8135 30.1549 27.8972 30.0723 27.9555 29.9725C28.0138 29.8728 28.0447 29.7594 28.0449 29.6438L28.0424 16.6686ZM26.9276 18.5326H19.4614V19.9675H26.9276V18.5326ZM26.9276 21.462H19.4614V22.8969H26.9276V21.462ZM26.9276 24.3915H19.4614V25.8277H26.9276V24.3915ZM30.7891 16.6686C30.7887 16.4951 30.7196 16.3288 30.5969 16.2061C30.4743 16.0834 30.308 16.0143 30.1345 16.014C29.9887 16.0133 29.847 16.0622 29.7326 16.1527H29.73C29.6514 16.2137 29.5878 16.2919 29.5442 16.3814C29.5006 16.4708 29.4782 16.5691 29.4786 16.6686V17.3232H30.1345C30.308 17.3228 30.4743 17.2538 30.5969 17.1311C30.7196 17.0084 30.7887 16.8421 30.7891 16.6686Z" fill="#8F37E6"/>
</svg>
